# xmcd
#
# Track frame offsets:
#	150
#	15620
#	30850
#	45345
#	59587
#	74154
#	89472
#	103477
#	118197
#	133530
#	148383
#	163416
#	178810
#	193954
#	208049
#	222037
#	236984
#	251357
#	266193
#	281669
#
# Disc length: 3950 seconds
#
# Revision: 0
# Processed by: cddbd v1.5.2PL0 Copyright (c) Steve Scherf et al.
# Submitted via: EasyCDDAExtractor 16.0.6.1
#
DISCID=490f6c14
DTITLE=Συλλογικός δίσκος - Το ρεμπέτικο τραγούδι 1932-1941 4
DYEAR=2009
DGENRE=Ρεμπέτικη
TTITLE0=Παπαϊωάννου Γιάννης-Κωνσταντινίδης Γ. - Πολύ στο λούσο τό 'ριξες [1940
TTITLE0=, Γιάννη Παπαϊωάννου]
TTITLE1=Παγιουμτζής Στράτος-Περπινιάδης Στελλάκης - Ο Τσιτσάνης στην Παραγουάη
TTITLE1=[1939, Βασίλη Τσιτσάνη]
TTITLE2=Βαμβακάρης Μάρκος - Φραγκοσυριανή [1935, Μάρκου Βαμβακάρη]
TTITLE3=Περπινιάδης Στελλάκης - Μάγισσα [1934, Κώστα Σκαρβέλη]
TTITLE4=Άνευ ερμηνευτού - Ταξίμι αθηναϊκό και ζεϊμπέκικο [1936, οργ., Γιώργου 
TTITLE4=Μπάτη]
TTITLE5=Παγιουμτζής Στράτος - Καλογεράκι [1939, Σταύρου Παντελίδη]
TTITLE6=Καλυβόπουλος Αντώνης - Ο πρεζάκιας [1936, Γιάννη Εϊτζιρίδη]
TTITLE7=Παγιουμτζής Στράτος-Κάνουλα Κ. - Σε ποιόν το ντέρτι μου να πω [1940, Σ
TTITLE7=τράτου Παγιουμτζή]
TTITLE8=Βαμβακάρης Μάρκος - Όταν με βλέπεις και περνώ [1934, Μάρκου Βαμβακάρη]
TTITLE9=Ρούκουνας Κώστας ή Σαμιωτάκης - Σαν πεθάνω [1934, Ιάκωβου Μοντανάρη]
TTITLE10=Κηρομύτης Στέλιος - Η μόνη μου παρηγοριά [1937, Στέλιου Κηρομύτη]
TTITLE11=Βαμβακάρης Μάρκος - Συνάχης [1934, Μάρκου Βαμβακάρη]
TTITLE12=Σταυροπούλου Νταίζη - Αρχοντοπούλα μου [1940, Κοσμά Κοσμαδόπουλου-Παν
TTITLE12=Τούντα]
TTITLE13=Παπαϊωάννου Γιάννης - Γλέντι και χορός [1938, Γιάννη Παπαϊωάννου]
TTITLE14=Μπάτης Γιώργος - Γυφτοπούλα 1934, Γιώργου Μπάτη]
TTITLE15=Αμπατζή Ρίτα-Βαμβακάρης Μάρκος - Αν είσαι μάγκας και νταής [1936, Μάρ
TTITLE15=κου Βαμβακάρη]
TTITLE16=Εσκενάζυ Ρόζα - Γιαννούσαιννα [1934, Σωτήρη Γαβαλά]
TTITLE17=Γκόγκος Δημήτρης ή Μπαγιαντέρας - Τους κενταύρους δεν φοβάμαι [1940, 
TTITLE17=Δημήτρη Γκόγκου]
TTITLE18=Δελλιάς Ανέστης-Παγιουμτζής Στράτος - Αθηναίϊσσα [1937, Μανώλη Χιώτη]
TTITLE19=Γκόγκος Δημήτρης ή Μπαγιαντέρας-Χιώτης Μ. - Μάτια γλυκά και γαλανά [1
TTITLE19=940, Δημήτρη Γκόγκου]
EXTD=
EXTT0=
EXTT1=
EXTT2=
EXTT3=
EXTT4=
EXTT5=
EXTT6=
EXTT7=
EXTT8=
EXTT9=
EXTT10=
EXTT11=
EXTT12=
EXTT13=
EXTT14=
EXTT15=
EXTT16=
EXTT17=
EXTT18=
EXTT19=
PLAYORDER=
